<svg width="15" height="14" viewBox="0 0 15 14" fill="none" xmlns="http://www.w3.org/2000/svg">
<path d="M13.1491 2.356L13.1486 2.35545C12.8097 2.02583 12.4098 1.76361 11.9706 1.5833L11.9697 1.58293C11.514 1.39509 11.025 1.29887 10.5312 1.3L10.5296 1.3C9.83476 1.3 9.15849 1.48874 8.57181 1.84386L8.57179 1.84388C8.43142 1.92883 8.29863 2.0218 8.17315 2.12279L7.73427 2.476L7.29539 2.12279C7.16991 2.0218 7.03712 1.92883 6.89676 1.84388L6.89674 1.84386C6.31005 1.48874 5.63378 1.3 4.93895 1.3C4.43741 1.3 3.95474 1.39503 3.49883 1.58293L3.49808 1.58324C3.05711 1.76439 2.66073 2.02432 2.31978 2.35566L2.31882 2.35659L2.31882 2.35659C1.98124 2.68341 1.71186 3.07249 1.52569 3.50163L13.1491 2.356ZM13.1491 2.356C13.4866 2.68354 13.7562 3.07295 13.9431 3.50228C14.1367 3.94875 14.2348 4.42039 14.2334 4.90643V4.90843C14.2334 5.36256 14.14 5.8512 13.9419 6.36516L13.9413 6.36675M13.1491 2.356L13.9413 6.36675M4.38 10.1131L4.38008 10.1132C5.12919 10.7996 5.87741 11.3823 6.4476 11.7988C6.73216 12.0066 6.97099 12.1721 7.14161 12.2874C7.2269 12.345 7.29495 12.3899 7.34291 12.4212C7.38582 12.4492 7.40923 12.464 7.41455 12.4673C7.4155 12.468 7.41587 12.4682 7.41567 12.4681L7.42674 12.4748L7.42667 12.4749L7.73344 12.6701L8.0402 12.4749L8.04034 12.4748C8.09153 12.4423 9.58235 11.4902 11.0869 10.1131H4.38ZM4.38 10.1131C3.4754 9.28447 2.76348 8.48186 2.25517 7.72993M4.38 10.1131L2.25517 7.72993M13.9413 6.36675C13.7773 6.79531 13.533 7.254 13.2117 7.72993M13.9413 6.36675L13.2117 7.72993M2.25517 7.72993C1.93479 7.25536 1.69136 6.79604 1.52498 6.36516L2.25517 7.72993ZM13.2117 7.72993C12.7034 8.4818 11.9916 9.28435 11.0871 10.1129L13.2117 7.72993ZM1.23345 4.90843C1.23345 4.42081 1.33196 3.94831 1.52567 3.50168L1.52497 6.36512C1.32688 5.85118 1.23345 5.36255 1.23345 4.90843Z" stroke="#ECECEC" stroke-width="1.4"/>
</svg>
